<?xml version="1.0" standalone="no"?>
<!DOCTYPE svg PUBLIC "-//W3C//DTD SVG 20010904//EN"
 "http://www.w3.org/TR/2001/REC-SVG-20010904/DTD/svg10.dtd">
<svg version="1.0" xmlns="http://www.w3.org/2000/svg"
 width="108.000000pt" height="108.000000pt" viewBox="0 0 108.000000 108.000000"
 preserveAspectRatio="xMidYMid meet">
<metadata>
Created by potrace 1.14, written by Peter Selinger 2001-2017
</metadata>
<g transform="translate(0.000000,108.000000) scale(0.100000,-0.100000)"
fill="#000000" stroke="none">
<path d="M0 540 c0 -516 1 -540 18 -540 15 0 21 13 30 73 26 162 55 203 186
261 47 21 86 43 86 47 0 5 13 9 30 9 16 0 40 5 54 11 20 10 23 15 16 38 -15
49 -40 101 -49 101 -15 0 -35 99 -23 113 8 9 8 25 1 52 -18 66 -22 104 -13
122 4 10 8 36 9 58 3 68 62 151 101 143 11 -2 27 5 37 15 12 12 25 16 40 11
12 -4 31 -7 41 -6 10 0 28 -5 39 -13 12 -8 32 -11 55 -8 33 6 35 5 29 -19 -7
-27 14 -55 32 -43 6 3 16 -3 23 -15 7 -11 18 -20 25 -20 7 0 13 -3 14 -7 0 -5
3 -19 5 -33 2 -14 5 -32 7 -41 1 -8 10 -23 20 -33 9 -10 17 -30 17 -44 0 -33
-27 -75 -42 -66 -7 4 -8 2 -4 -4 4 -7 3 -12 -2 -12 -10 0 -25 -37 -23 -53 3
-17 -21 -93 -34 -107 -7 -8 -20 -32 -28 -52 -16 -37 -15 -38 11 -52 55 -31
151 -75 209 -96 71 -26 83 -44 118 -190 13 -52 28 -106 34 -120 7 -17 10 144
10 518 l1 542 -540 0 -540 0 0 -540z"/>
<path d="M720 950 c0 -5 5 -10 11 -10 5 0 7 5 4 10 -3 6 -8 10 -11 10 -2 0 -4
-4 -4 -10z"/>
</g>
</svg>
